<?xml version="1.0" encoding="utf-8"?>
<svg version="1.1" id="Layer_1" xmlns="http://www.w3.org/2000/svg" xmlns:xlink="http://www.w3.org/1999/xlink" x="0px" y="0px"
	 viewBox="0 0 28 28">
<path d="M20.667 23.3327V27.3327H18.0003V23.3327C18.0003 21.866 16.8003 20.666 15.3337 20.666H11.3337C7.60033 20.666 4.66699 17.7327 4.66699 13.9993C4.66699 12.3993 5.20033 11.066 6.13366 9.86602C3.06699 9.33268 0.666992 6.53268 0.666992 3.33268C0.666992 2.39935 0.933659 1.46602 1.20033 0.666016H4.40033C3.73366 1.33268 3.33366 2.26602 3.33366 3.33268C3.33366 5.59935 5.06699 7.33268 7.33366 7.33268H11.3337V9.99935C9.06699 9.99935 7.33366 11.7327 7.33366 13.9993C7.33366 16.266 9.06699 17.9993 11.3337 17.9993H15.3337C18.267 17.9993 20.667 20.3993 20.667 23.3327ZM21.867 9.86602C24.9337 9.33268 27.3337 6.53268 27.3337 3.33268C27.3337 2.39935 27.067 1.46602 26.8003 0.666016H23.6003C24.267 1.33268 24.667 2.26602 24.667 3.33268C24.667 5.59935 22.9337 7.33268 20.667 7.33268H19.067C19.2003 7.73268 19.3337 8.13268 19.3337 8.66602C19.3337 10.9327 17.6003 12.666 15.3337 12.666V15.3327C19.067 15.3327 22.0003 18.266 22.0003 21.9993V27.3327H24.667V21.9993C24.667 18.3993 22.667 15.3327 19.6003 13.7327C20.8003 12.7993 21.6003 11.466 21.867 9.86602Z" />
</svg>