<?xml version="1.0" encoding="utf-8"?>
<svg version="1.1" id="Layer_1" xmlns="http://www.w3.org/2000/svg" xmlns:xlink="http://www.w3.org/1999/xlink" x="0px" y="0px" viewBox="0 0 100 100">
<path class="gas" d="M68.4,41.3c-2.2-12.6-7.2-22.4-12-29.5C54.5,8.8,49.7,3.3,47.3,1l0,0h-0.1c-0.1-0.2-0.2-0.2-0.3-0.2c-0.3,0-0.7,0.3-0.7,0.7
	v0.1c0.3,4.1,0.3,14.7-7.1,26.8c-5.8,9.4-11.5,18.8-13.4,28.8c-0.5,2.8-0.9,5.9-0.9,9c0,14,6.5,26.1,15.9,31.8l0,0
	c1.1,0.7,1.9,1.1,2.6,1.4c0.1,0,0.2,0.1,0.3,0.1c0.3,0,0.7-0.3,0.7-0.7c0-0.2-0.1-0.3-0.2-0.4c-3.7-3.6-6.2-10.5-6.2-18.8
	c0-16.9,8.4-25.4,8.4-25.4s13.8,9.5,7.1,27.6l0,0c0,0.1,0,0.1,0,0.2c0,0.3,0.3,0.7,0.7,0.7c0.1,0,0.1,0,0.1,0c4.4-1,9.7-9.7,9.7-9.7
	l0,0C68,66.1,70.9,56.2,68.4,41.3z"/>
</svg>
