<svg height='300px' width='300px' xmlns="http://www.w3.org/2000/svg" version="1.1" viewBox="0 0 100 100" >
    <path  class="gas" d="M69.5,42c-2-11.5-6.6-20.5-11-26.9c-1.7-2.8-6.1-7.8-8.3-9.9c0,0,0,0,0,0c0,0-0.1,0-0.1,0C50,5,49.9,5,49.8,5  c-0.3,0-0.6,0.3-0.6,0.6c0,0,0,0.1,0,0.1c0.3,3.7,0.3,13.4-6.5,24.5c-5.3,8.6-10.5,17.2-12.2,26.3c-0.5,2.6-0.8,5.4-0.8,8.2  c0,12.8,5.9,23.8,14.5,29c0,0,0,0,0,0c1,0.6,1.7,1,2.4,1.3c0.1,0,0.2,0.1,0.3,0.1c0.3,0,0.6-0.3,0.6-0.6c0-0.2-0.1-0.3-0.2-0.4  c-3.4-3.3-5.7-9.6-5.7-17.2c0-15.4,7.7-23.2,7.7-23.2s12.6,8.7,6.5,25.2c0,0,0,0,0,0c0,0.1,0,0.1,0,0.2c0,0.3,0.3,0.6,0.6,0.6  c0.1,0,0.1,0,0.1,0c4-0.9,8.9-8.9,8.9-8.9l0,0C69.1,64.6,71.8,55.6,69.5,42z"></path></svg>
