<svg xmlns="http://www.w3.org/2000/svg" viewBox="0 0 233.15 237.96">
    <defs>
        <style>.cls-1{fill:#4e4e4e;}.cls-2{fill:#1172ba;}</style>
    </defs>
    <g id="Layer_2" data-name="Layer 2">
        <g id="Layer_1-2" data-name="Layer 1">
            <path class="cls-1" d="M114,54a65.22,65.22,0,0,1,11.43,1,79,79,0,1,0,0,127.9A65,65,0,1,1,114,54Z"/>
            <path class="cls-2" d="M174.94,90.55h54.55A118.9,118.9,0,0,0,37.24,28.11a100,100,0,0,1,137.7,62.44Z"/>
            <path class="cls-2"
                  d="M210.45,119H140.14v27.68h35C170,187.65,125,218.43,79,219a96.68,96.68,0,0,1-41.79-9.16A118.69,118.69,0,0,0,114,238c71.77.1,123-50.6,119-119H210.45Z"/>
        </g>
    </g>
</svg>
