<?xml version="1.0" encoding="utf-8"?>
<!-- Generator: Adobe Illustrator 25.4.1, SVG Export Plug-In . SVG Version: 6.00 Build 0)  -->
<svg version="1.1" id="Layer_1" xmlns="http://www.w3.org/2000/svg" xmlns:xlink="http://www.w3.org/1999/xlink" x="0px" y="0px"
	 viewBox="0 0 100 100">
<path class="oil" d="M81.4,60.8c-3.2-24.3-31-59.1-31-59.1s-27.8,34.8-31,59.1c-0.1,1-0.3,4.7-0.3,4.9c0.3,17,14.2,30.6,31.2,30.6
	c17.3,0,31.3-14,31.3-31.3C81.7,64.9,81.6,61.8,81.4,60.8z M46.1,82.9c-2.8,3.4-10,1.8-13.3-1.9c-3.1-3.4-5.3-8.3-5.9-13.6
	c-2.4-11.3,9.7-28.9,9.7-28.9c0.2,12.7,2.6,19.1,3.9,22.5c1.4,3.8,4.5,8.7,6.6,12.5C49.3,77.3,48.7,81.2,46.1,82.9z"/>
</svg>
