<?xml version="1.0" encoding="utf-8"?>
<svg version="1.1" xmlns="http://www.w3.org/2000/svg" xmlns:xlink="http://www.w3.org/1999/xlink" viewBox="0 0 300 300">
<path class="oil" d="M236.8,182.8C228,115.4,151,19,151,19s-77,96.4-85.8,163.8c-0.4,2.8-0.8,13.1-0.8,13.7c0.9,47,39.4,84.9,86.6,84.9
	c47.9,0,86.7-38.8,86.7-86.7C237.7,194.1,237.2,185.6,236.8,182.8z M139,244c-7.8,9.4-27.8,4.9-36.9-5.2
	c-8.6-9.5-14.6-22.9-16.4-37.8c-6.7-31.3,26.9-80,26.9-80c0.5,35.3,7.2,52.9,10.9,62.3c4,10.5,12.6,24,18.4,34.6
	C147.8,228.5,146.2,239.2,139,244z"/>
</svg>
